# xmcd
#
# Track frame offsets: 
#        150
#        24340
#        36194
#        51443
#        62318
#        79106
#        98318
#        112171
#        125592
#        151396
#        168850
#        180813
#        195532
#        206122
#
# Disc length: 2992 seconds
#
# Revision: 0
# Processed by: cddbd v1.5.2PL0 Copyright (c) Steve Scherf et al.
# Submitted via: ExactAudioCopy v0.99pb5
#
DISCID=ab0bae0e
DTITLE=Freakwater - June 6, 1994
DYEAR=1994
DGENRE=Freakwater
TTITLE0=A Song You Could Cry For
TTITLE1=Are You Ready
TTITLE2=Dream Girl
TTITLE3=Childish Love
TTITLE4=Blue Eyes Crying in the Rain
TTITLE5=My Old Drunk Friend
TTITLE6=Dreadful Snake
TTITLE7=Kentucky
TTITLE8=Forgettable Song
TTITLE9=Rank Strangers
TTITLE10=Crazy Man
TTITLE11=Put My Little Shoes Away
TTITLE12=Lullaby
TTITLE13=Count Me Out
EXTD=
EXTT0=
EXTT1=
EXTT2=
EXTT3=
EXTT4=
EXTT5=
EXTT6=
EXTT7=
EXTT8=
EXTT9=
EXTT10=
EXTT11=
EXTT12=
EXTT13=
PLAYORDER=
